# xmcd
#
# Track frame offsets: 
#        182
#        21697
#        51585
#        76167
#        121185
#        146275
#        157692
#        181592
#        203312
#        232162
#        270637
#        300137
#
# Disc length: 4425 seconds
#
# Revision: 3
# Processed by: cddbd v1.5.2PL0 Copyright (c) Steve Scherf et al.
# Submitted via: ExactAudioCopy v0.95b4
#
DISCID=8c11470c
DTITLE=Various Artist - JAZZIZ Presents Percussion On Fire
DYEAR=1997
DGENRE=Jazz
TTITLE0=Alex Pertout - Salvador
TTITLE1=Steve Grover - Blackbird Suite IV:  A Man And A Woman Are One
TTITLE2=Todd Isler - Hobroken
TTITLE3=Scott Latzky - Big Sky
TTITLE4=Mark Walker - Supercollider
TTITLE5=Gilad Dobrecky - Oak Bodies
TTITLE6=Lee Venters - Bahia
TTITLE7=Bertram Lehmann - Falling
TTITLE8=Rogerio Jardim - Danca Par A Lua
TTITLE9=Errol Rackipov - Pictures From A Train Window
TTITLE10=David King - Mobile Dawn, Mobile Dusk
TTITLE11=Jeff Nearpass - Blume'n Cuban
EXTD=YEAR: 1997
EXTT0=
EXTT1=
EXTT2=
EXTT3=
EXTT4=
EXTT5=
EXTT6=
EXTT7=
EXTT8=
EXTT9=\n
EXTT10=
EXTT11=
PLAYORDER=
